# xmcd
#
# Track frame offsets: 
#        150
#        14559
#        29200
#        41888
#        54664
#        66603
#        78619
#        91658
#        104648
#        116069
#
# Disc length: 1699 seconds
#
# Revision: 2
# Processed by: cddbd v1.5.2PL0 Copyright (c) Steve Scherf et al.
# Submitted via: ExactAudioCopy v0.99pb5
#
DISCID=9606a10a
DTITLE=Nat King Cole - The Unforgettable
DYEAR=2007
DGENRE=Easy Listening
TTITLE0=Unforgettable
TTITLE1=Mona Lisa
TTITLE2=Ramblin' Rose
TTITLE3=Ballerina
TTITLE4=Answer Me, My Love
TTITLE5=Walkin' My Baby Back Home
TTITLE6=Smile
TTITLE7=(I Love You) For Sentimental Reasons
TTITLE8=A Blosson Fell
TTITLE9=The Sand And The Sea
EXTD=Compilation of the Nat King Cole Hits
EXTT0=
EXTT1=
EXTT2=
EXTT3=
EXTT4=
EXTT5=
EXTT6=
EXTT7=
EXTT8=
EXTT9=
PLAYORDER=
